<?xml version="1.0" standalone="no"?>
<!DOCTYPE svg PUBLIC "-//W3C//DTD SVG 20010904//EN"
 "http://www.w3.org/TR/2001/REC-SVG-20010904/DTD/svg10.dtd">
<svg version="1.0" xmlns="http://www.w3.org/2000/svg"
 width="1200.000000pt" height="1200.000000pt" viewBox="0 0 1200.000000 1200.000000"
 preserveAspectRatio="xMidYMid meet">

<g transform="translate(0.000000,1200.000000) scale(0.100000,-0.100000)"
fill="#000000" stroke="none">
<path d="M9725 9350 c-412 -29 -865 -79 -950 -104 -27 -9 -108 -50 -180 -92
-162 -96 -307 -175 -312 -171 -1 2 22 32 52 67 48 55 85 124 73 135 -10 10
-508 -115 -561 -140 -18 -8 -97 -67 -176 -130 -79 -63 -145 -115 -148 -115 -2
0 19 30 47 66 57 75 83 119 78 139 -4 17 -95 -7 -363 -97 -290 -97 -449 -161
-521 -207 -68 -45 -271 -249 -384 -388 -41 -50 -76 -90 -78 -88 -2 2 23 59 56
127 81 166 112 266 93 297 -7 11 -18 10 -67 -4 -131 -38 -440 -176 -494 -221
-17 -14 -49 -58 -71 -98 -60 -103 -121 -197 -126 -192 -2 2 14 46 36 99 23 52
41 106 41 121 0 25 -2 26 -22 15 -28 -15 -432 -273 -628 -401 -206 -135 -222
-153 -342 -393 -55 -110 -121 -255 -148 -322 -45 -112 -79 -186 -80 -172 0 9
165 478 204 576 20 51 36 95 36 98 0 6 -117 -69 -414 -267 -266 -177 -435
-300 -483 -350 -83 -86 -119 -241 -144 -613 -2 -35 -20 52 -29 142 -19 186
-55 303 -95 303 -35 0 -128 -53 -220 -127 -121 -98 -450 -427 -464 -465 -6
-16 -13 -90 -16 -165 -4 -76 -8 -163 -10 -193 -2 -30 -4 -95 -5 -145 -2 -136
-20 -69 -65 238 -9 59 -20 118 -25 130 -7 20 -11 16 -33 -34 -64 -142 -114
-447 -133 -819 -5 -102 -3 -146 14 -240 11 -63 23 -146 27 -185 3 -38 18 -135
31 -215 l26 -146 -84 -134 c-46 -74 -124 -204 -172 -287 -49 -84 -92 -151 -96
-148 -4 2 -26 -30 -50 -71 -44 -76 -46 -78 -92 -59 -21 8 -65 -35 -75 -73 -6
-24 9 -44 40 -55 6 -2 -82 -111 -196 -243 -113 -132 -209 -252 -212 -267 -4
-14 0 -50 9 -80 32 -111 15 -231 -54 -384 -28 -60 -28 -62 -8 -68 11 -4 21 -5
22 -3 1 1 75 120 165 262 153 244 161 261 151 287 -15 34 3 77 41 98 58 32
114 -19 88 -81 -13 -32 -36 -48 -71 -48 -19 -1 -50 -45 -189 -268 -91 -147
-164 -272 -162 -279 4 -9 102 -12 386 -13 210 0 438 -2 507 -5 69 -2 283 -6
475 -10 193 -3 413 -8 490 -10 187 -6 565 -16 920 -24 475 -12 1384 -12 1625
-1 812 38 1276 127 1509 290 100 70 161 165 187 293 66 314 -251 558 -836 642
-156 23 -476 31 -637 16 -399 -37 -701 -137 -864 -288 -116 -108 -109 -227 19
-315 152 -105 426 -159 772 -153 404 7 821 92 905 185 27 30 24 79 -8 106 -50
43 -227 94 -375 108 l-57 6 55 -16 c111 -30 266 -85 305 -107 25 -14 40 -30
40 -42 0 -97 -750 -197 -1130 -151 -328 39 -549 145 -513 247 33 95 255 211
514 268 276 61 681 70 992 20 85 -13 275 -63 342 -89 154 -61 289 -159 332
-243 64 -126 8 -302 -122 -386 -233 -151 -667 -228 -1460 -260 -289 -11 -1075
-12 -1555 -2 -247 6 -610 14 -805 18 -593 13 -1236 8 -1460 -11 -190 -16 -454
-50 -485 -62 -34 -13 -11 20 72 103 94 94 167 139 274 168 31 8 66 23 77 32
12 10 75 144 141 298 82 193 123 279 133 276 53 -16 65 -13 87 22 28 46 27 71
-5 85 -28 14 -29 11 33 99 48 69 50 73 27 73 -10 0 -14 5 -10 15 8 22 356 549
367 555 5 3 93 12 196 19 104 7 296 23 428 35 l240 21 -212 75 c-116 41 -210
76 -209 78 5 4 252 -16 363 -29 50 -6 140 -9 200 -7 104 4 112 6 218 53 225
101 245 117 677 585 218 235 234 255 209 259 -27 3 -313 -20 -536 -44 -171
-19 -311 -29 -305 -22 3 3 93 20 200 37 208 34 625 112 700 131 69 18 131 53
190 106 56 51 270 291 270 303 0 8 -95 13 -480 25 -96 4 -176 8 -178 10 -6 6
77 14 258 25 339 21 494 36 525 53 17 8 68 50 115 92 93 85 318 276 352 300
12 8 20 16 17 18 -2 2 -60 26 -129 53 l-124 49 189 5 c227 6 218 2 414 158
140 111 352 300 358 319 7 19 -119 41 -327 58 -107 9 -196 17 -197 19 -2 2
137 6 309 9 172 3 328 10 346 16 35 10 46 17 477 300 294 193 404 263 478 305
27 15 47 30 45 32 -3 2 -80 4 -174 5 -268 3 -301 12 -99 27 234 19 396 39 453
58 68 23 156 77 437 265 332 222 415 283 391 287 -19 4 -179 -13 -555 -59
-134 -16 -249 -28 -255 -26 -11 4 255 48 579 97 292 44 369 71 540 191 38 28
132 91 208 140 77 50 137 92 135 94 -2 2 -91 -10 -198 -25 -107 -16 -201 -30
-209 -30 -42 0 19 14 225 55 196 39 236 50 279 77 28 17 84 52 125 78 121 75
196 132 219 168 12 19 21 35 19 36 -2 1 -10 7 -19 14 -21 15 -363 24 -524 12z
m-836 -415 c-3 -2 -86 -33 -184 -69 -732 -262 -966 -357 -1510 -609 -821 -380
-1338 -727 -2223 -1495 -234 -203 -922 -890 -1194 -1192 -443 -492 -785 -955
-1134 -1532 -31 -51 -58 -94 -59 -96 -3 -3 -47 18 -73 36 -17 11 57 138 245
422 262 396 415 606 577 795 525 613 1194 1300 1565 1608 1258 1046 1905 1425
3246 1902 396 141 770 257 744 230z m-6257 -5261 c13 -9 9 -30 -10 -47 -16
-15 -21 -15 -47 -1 -17 9 -83 43 -147 76 -65 32 -118 61 -118 62 0 4 311 -83
322 -90z m-150 -56 c14 -12 10 -26 -33 -138 -192 -488 -177 -459 -246 -474
l-33 -8 38 84 c146 327 248 547 253 548 3 0 12 -6 21 -12z"/>
</g>
</svg>
